<?xml version="1.0" encoding="utf-8"?>
<!-- Generator: Adobe Illustrator 28.2.0, SVG Export Plug-In . SVG Version: 6.00 Build 0)  -->
<!DOCTYPE svg PUBLIC "-//W3C//DTD SVG 1.1//EN" "http://www.w3.org/Graphics/SVG/1.1/DTD/svg11.dtd" [
	<!ENTITY ns_extend "http://ns.adobe.com/Extensibility/1.0/">
	<!ENTITY ns_ai "http://ns.adobe.com/AdobeIllustrator/10.0/">
	<!ENTITY ns_graphs "http://ns.adobe.com/Graphs/1.0/">
	<!ENTITY ns_vars "http://ns.adobe.com/Variables/1.0/">
	<!ENTITY ns_imrep "http://ns.adobe.com/ImageReplacement/1.0/">
	<!ENTITY ns_sfw "http://ns.adobe.com/SaveForWeb/1.0/">
	<!ENTITY ns_custom "http://ns.adobe.com/GenericCustomNamespace/1.0/">
	<!ENTITY ns_adobe_xpath "http://ns.adobe.com/XPath/1.0/">
]>
<svg version="1.1" id="_x32_" xmlns:x="&ns_extend;" xmlns:i="&ns_ai;" xmlns:graph="&ns_graphs;"
	 xmlns="http://www.w3.org/2000/svg" xmlns:xlink="http://www.w3.org/1999/xlink" x="0px" y="0px" width="25px" height="22px"
	 viewBox="0 0 25 22" style="enable-background:new 0 0 25 22;" xml:space="preserve">
<style type="text/css">
	.st0{fill:url(#SVGID_1_);}
	.st1{fill:url(#SVGID_00000109735535163194900970000014307713780741386657_);}
	.st2{fill:url(#SVGID_00000123430551570939720810000011319941172549004733_);}
	.st3{fill:url(#SVGID_00000003792471028778985300000006866802140083142272_);}
	.st4{fill:url(#SVGID_00000159435287540007631230000018082948240147355316_);}
	.st5{fill:url(#SVGID_00000072271319600301291240000012105039996474005391_);}
	.st6{fill:url(#SVGID_00000165215542126285697850000005634286790882133430_);}
</style>
<metadata>
	<sfw  xmlns="&ns_sfw;">
		<slices></slices>
		<sliceSourceBounds  bottomLeftOrigin="true" height="22" width="25" x="0.1" y="0.4"></sliceSourceBounds>
	</sfw>
</metadata>
<g>
	<g>
		
			<linearGradient id="SVGID_1_" gradientUnits="userSpaceOnUse" x1="9.9954" y1="-208.169" x2="14.9603" y2="-208.169" gradientTransform="matrix(1 0 0 -1 0 -191.9485)">
			<stop  offset="0" style="stop-color:#FFFFFF"/>
			<stop  offset="1" style="stop-color:#000000"/>
		</linearGradient>
		<path class="st0" d="M15,13.9l-0.1,0.1c-0.8,0.4-1.5,0.6-2.3,0.6c-0.8,0-1.6-0.2-2.3-0.6L10,13.9l0.8,4.7h3.3L15,13.9z"/>
		
			<linearGradient id="SVGID_00000088128750918678908720000014747453062392859776_" gradientUnits="userSpaceOnUse" x1="8.5654" y1="-212.7277" x2="16.3903" y2="-212.7277" gradientTransform="matrix(1 0 0 -1 0 -191.9485)">
			<stop  offset="0" style="stop-color:#FFFFFF"/>
			<stop  offset="1" style="stop-color:#000000"/>
		</linearGradient>
		<polygon style="fill:url(#SVGID_00000088128750918678908720000014747453062392859776_);" points="9.5,19.5 8.6,22 16.4,22 
			15.4,19.5 		"/>
		
			<linearGradient id="SVGID_00000127744981337103067910000010077073016795879316_" gradientUnits="userSpaceOnUse" x1="-2.219388e-02" y1="-198.7027" x2="24.9778" y2="-198.7027" gradientTransform="matrix(1 0 0 -1 0 -191.9485)">
			<stop  offset="0" style="stop-color:#FFFFFF"/>
			<stop  offset="1" style="stop-color:#000000"/>
		</linearGradient>
		<path style="fill:url(#SVGID_00000127744981337103067910000010077073016795879316_);" d="M20.6,0.9c0-0.3,0-0.5,0-0.8V0H4.4v0.1
			c0,0.3,0,0.5,0,0.8H0V2c0,4.9,3.5,8.9,7.7,8.9l0,0c1.4,1.7,3,2.6,4.8,2.6c1.7,0,3.4-0.9,4.8-2.6c4.2,0,7.7-4,7.7-8.9V0.9H20.6z
			 M13.8,6.4l0.8,2.5l-2.2-1.6l-2.2,1.6l0.8-2.5L8.9,4.8h2.7l0.8-2.5l0.8,2.5H16L13.8,6.4z M2.3,3.2h2.3c0.3,1.9,0.8,3.7,1.5,5.2
			C4.2,7.7,2.7,5.6,2.3,3.2z M18.8,8.4c0.7-1.5,1.3-3.3,1.5-5.2h2.3C22.3,5.6,20.8,7.7,18.8,8.4z"/>
	</g>
	<g>
		
			<linearGradient id="SVGID_00000126297057964019022640000016791276493949173943_" gradientUnits="userSpaceOnUse" x1="-2.219388e-02" y1="-208.169" x2="24.9778" y2="-208.169" gradientTransform="matrix(1 0 0 -1 0 -191.9485)">
			<stop  offset="0" style="stop-color:#F6AC73"/>
			<stop  offset="3.964420e-02" style="stop-color:#EC9A60"/>
			<stop  offset="0.1039" style="stop-color:#DF8247"/>
			<stop  offset="0.1627" style="stop-color:#D77338"/>
			<stop  offset="0.2107" style="stop-color:#D46E33"/>
			<stop  offset="0.3457" style="stop-color:#E59C63"/>
			<stop  offset="0.5566" style="stop-color:#FFE0AA"/>
			<stop  offset="0.602" style="stop-color:#FEDBA5"/>
			<stop  offset="0.6581" style="stop-color:#FBCC96"/>
			<stop  offset="0.7196" style="stop-color:#F5B37D"/>
			<stop  offset="0.7846" style="stop-color:#EE915A"/>
			<stop  offset="0.8437" style="stop-color:#E66B34"/>
			<stop  offset="0.8868" style="stop-color:#DC6431"/>
			<stop  offset="0.9596" style="stop-color:#C25129"/>
			<stop  offset="1" style="stop-color:#B04524"/>
		</linearGradient>
		<path style="fill:url(#SVGID_00000126297057964019022640000016791276493949173943_);" d="M15,13.9l-0.1,0.1
			c-0.8,0.4-1.5,0.6-2.3,0.6c-0.8,0-1.6-0.2-2.3-0.6L10,13.9l0.8,4.7h3.3L15,13.9z"/>
		
			<linearGradient id="SVGID_00000167394521730575498130000004394991754442936740_" gradientUnits="userSpaceOnUse" x1="-2.219388e-02" y1="-212.7277" x2="24.9778" y2="-212.7277" gradientTransform="matrix(1 0 0 -1 0 -191.9485)">
			<stop  offset="0" style="stop-color:#F6AC73"/>
			<stop  offset="3.964420e-02" style="stop-color:#EC9A60"/>
			<stop  offset="0.1039" style="stop-color:#DF8247"/>
			<stop  offset="0.1627" style="stop-color:#D77338"/>
			<stop  offset="0.2107" style="stop-color:#D46E33"/>
			<stop  offset="0.3457" style="stop-color:#E59C63"/>
			<stop  offset="0.5566" style="stop-color:#FFE0AA"/>
			<stop  offset="0.602" style="stop-color:#FEDBA5"/>
			<stop  offset="0.6581" style="stop-color:#FBCC96"/>
			<stop  offset="0.7196" style="stop-color:#F5B37D"/>
			<stop  offset="0.7846" style="stop-color:#EE915A"/>
			<stop  offset="0.8437" style="stop-color:#E66B34"/>
			<stop  offset="0.8868" style="stop-color:#DC6431"/>
			<stop  offset="0.9596" style="stop-color:#C25129"/>
			<stop  offset="1" style="stop-color:#B04524"/>
		</linearGradient>
		<polygon style="fill:url(#SVGID_00000167394521730575498130000004394991754442936740_);" points="9.5,19.5 8.6,22 16.4,22 
			15.4,19.5 		"/>
		
			<linearGradient id="SVGID_00000137846282271227930560000007663241420516602037_" gradientUnits="userSpaceOnUse" x1="-2.219388e-02" y1="-198.7027" x2="24.9778" y2="-198.7027" gradientTransform="matrix(1 0 0 -1 0 -191.9485)">
			<stop  offset="0" style="stop-color:#F6AC73"/>
			<stop  offset="3.964420e-02" style="stop-color:#EC9A60"/>
			<stop  offset="0.1039" style="stop-color:#DF8247"/>
			<stop  offset="0.1627" style="stop-color:#D77338"/>
			<stop  offset="0.2107" style="stop-color:#D46E33"/>
			<stop  offset="0.3457" style="stop-color:#E59C63"/>
			<stop  offset="0.5566" style="stop-color:#FFE0AA"/>
			<stop  offset="0.602" style="stop-color:#FEDBA5"/>
			<stop  offset="0.6581" style="stop-color:#FBCC96"/>
			<stop  offset="0.7196" style="stop-color:#F5B37D"/>
			<stop  offset="0.7846" style="stop-color:#EE915A"/>
			<stop  offset="0.8437" style="stop-color:#E66B34"/>
			<stop  offset="0.8868" style="stop-color:#DC6431"/>
			<stop  offset="0.9596" style="stop-color:#C25129"/>
			<stop  offset="1" style="stop-color:#B04524"/>
		</linearGradient>
		<path style="fill:url(#SVGID_00000137846282271227930560000007663241420516602037_);" d="M20.6,0.9c0-0.3,0-0.5,0-0.8V0H4.4v0.1
			c0,0.3,0,0.5,0,0.8H0V2c0,4.9,3.5,8.9,7.7,8.9l0,0c1.4,1.7,3,2.6,4.8,2.6c1.7,0,3.4-0.9,4.8-2.6c4.2,0,7.7-4,7.7-8.9V0.9H20.6z
			 M13.8,6.4l0.8,2.5l-2.2-1.6l-2.2,1.6l0.8-2.5L8.9,4.8h2.7l0.8-2.5l0.8,2.5H16L13.8,6.4z M2.3,3.2h2.3c0.3,1.9,0.8,3.7,1.5,5.2
			C4.2,7.7,2.7,5.6,2.3,3.2z M18.8,8.4c0.7-1.5,1.3-3.3,1.5-5.2h2.3C22.3,5.6,20.8,7.7,18.8,8.4z"/>
	</g>
</g>
<linearGradient id="SVGID_00000005964239789002589180000004385558326728570783_" gradientUnits="userSpaceOnUse" x1="8.9404" y1="-197.1418" x2="16.0432" y2="-197.1418" gradientTransform="matrix(1 0 0 -1 0 -191.9485)">
	<stop  offset="0" style="stop-color:#D46E33"/>
	<stop  offset="1.541700e-03" style="stop-color:#D57035"/>
	<stop  offset="3.520260e-02" style="stop-color:#E08E54"/>
	<stop  offset="7.256450e-02" style="stop-color:#EAA76F"/>
	<stop  offset="0.1155" style="stop-color:#F1BC85"/>
	<stop  offset="0.1657" style="stop-color:#F8CC96"/>
	<stop  offset="0.2278" style="stop-color:#FCD8A1"/>
	<stop  offset="0.3148" style="stop-color:#FEDEA8"/>
	<stop  offset="0.5566" style="stop-color:#FFE0AA"/>
</linearGradient>
<rect x="8.9" y="4.8" style="fill:url(#SVGID_00000005964239789002589180000004385558326728570783_);" width="7.1" height="0.8"/>
<g>
	<path d="M16,5c-0.5,0.3-3.6,1.1-2.7-1.3c0.1-0.2,0.1-0.5,0.1-0.8c0-1.2-1.1-2.1-2.3-2.1c-0.9,0-1.7,0.6-2,1.4
		C8.5,2.5,8.3,2.2,8.2,2C8,1.6,7.7,1.7,7.6,2.2c0,0.3,0.2,1,0.9,1.3C8.3,3.5,8.2,3.6,8.1,3.8C7.9,4,8.1,4.3,8.4,4.2
		C8.6,4.1,9,4.1,9.2,4.1c0.1,0.2,0.3,0.4,0.4,0.6c0.1,0.2,0,0.3-0.4,1c-0.5,0.9-0.6,2.2,0.2,3c0.9,1,2.7,1,4.6,0.9
		c2.7-0.1,3.2-2.8,3.4-3.9C17.5,4.3,17,4.3,16,5z M10.5,3c-0.2,0-0.4-0.1-0.4-0.3c0-0.2,0.1-0.4,0.4-0.4c0.2,0,0.4,0.1,0.4,0.3
		C10.9,2.9,10.7,3,10.5,3z"/>
</g>
</svg>
