<?xml version="1.0" encoding="utf-8"?>
<!-- Generator: Adobe Illustrator 28.2.0, SVG Export Plug-In . SVG Version: 6.00 Build 0)  -->
<!DOCTYPE svg PUBLIC "-//W3C//DTD SVG 1.1//EN" "http://www.w3.org/Graphics/SVG/1.1/DTD/svg11.dtd" [
	<!ENTITY ns_extend "http://ns.adobe.com/Extensibility/1.0/">
	<!ENTITY ns_ai "http://ns.adobe.com/AdobeIllustrator/10.0/">
	<!ENTITY ns_graphs "http://ns.adobe.com/Graphs/1.0/">
	<!ENTITY ns_vars "http://ns.adobe.com/Variables/1.0/">
	<!ENTITY ns_imrep "http://ns.adobe.com/ImageReplacement/1.0/">
	<!ENTITY ns_sfw "http://ns.adobe.com/SaveForWeb/1.0/">
	<!ENTITY ns_custom "http://ns.adobe.com/GenericCustomNamespace/1.0/">
	<!ENTITY ns_adobe_xpath "http://ns.adobe.com/XPath/1.0/">
]>
<svg version="1.1" id="_x32_" xmlns:x="&ns_extend;" xmlns:i="&ns_ai;" xmlns:graph="&ns_graphs;"
	 xmlns="http://www.w3.org/2000/svg" xmlns:xlink="http://www.w3.org/1999/xlink" x="0px" y="0px" width="263.083252px"
	 height="237.3738861px" viewBox="0 0 263.083252 237.3738861" style="enable-background:new 0 0 263.083252 237.3738861;"
	 xml:space="preserve">
<style type="text/css">
	.st0{fill:url(#SVGID_1_);}
	.st1{fill:url(#SVGID_00000069397925730333068620000007056926861906206097_);}
	.st2{fill:url(#SVGID_00000042007455434582925490000009554162832678020541_);}
	.st3{fill:url(#SVGID_00000051379933544456620800000012825633455568485819_);}
	.st4{fill:url(#SVGID_00000029010531902155902230000008521682240525295024_);}
	.st5{fill:url(#SVGID_00000072258342402932689640000008953943576338557059_);}
	.st6{fill:none;stroke:#1D1D1B;}
	.st7{fill:url(#SVGID_00000114075097923134336990000017985115966556326295_);}
</style>
<metadata>
	<sfw  xmlns="&ns_sfw;">
		<slices></slices>
		<sliceSourceBounds  bottomLeftOrigin="true" height="235.4244844" width="260.1416359" x="1.7190304" y="1.1702377">
			</sliceSourceBounds>
	</sfw>
</metadata>
<g>
	<g>
		
			<linearGradient id="SVGID_1_" gradientUnits="userSpaceOnUse" x1="106.0578918" y1="173.7237549" x2="157.5228271" y2="173.7237549">
			<stop  offset="0" style="stop-color:#FFFFFF"/>
			<stop  offset="1" style="stop-color:#000000"/>
		</linearGradient>
		<path class="st0" d="M157.5228271,148.6330719l-1.4430084,0.77034
			c-7.8081665,4.1594238-15.9868164,6.2679901-24.3087006,6.2679901c-8.2965775,0-16.4620743-2.108551-24.2702332-6.2679901
			l-1.4429932-0.77034l8.4322281,50.1813507h34.6014938L157.5228271,148.6330719z"/>
		
			<linearGradient id="SVGID_00000130610710425130421980000009443209948496062098_" gradientUnits="userSpaceOnUse" x1="91.2351913" y1="222.2996521" x2="172.3455048" y2="222.2996521">
			<stop  offset="0" style="stop-color:#FFFFFF"/>
			<stop  offset="1" style="stop-color:#000000"/>
		</linearGradient>
		<polygon style="fill:url(#SVGID_00000130610710425130421980000009443209948496062098_);" points="101.3285522,208.8956451 
			91.2351913,235.7036438 172.3455048,235.7036438 162.2521515,208.8956451 		"/>
		
			<linearGradient id="SVGID_00000041992398028987751150000014036184152522932363_" gradientUnits="userSpaceOnUse" x1="2.2190304" y1="72.854393" x2="261.3606567" y2="72.854393">
			<stop  offset="0" style="stop-color:#FFFFFF"/>
			<stop  offset="1" style="stop-color:#000000"/>
		</linearGradient>
		<path style="fill:url(#SVGID_00000041992398028987751150000014036184152522932363_);" d="M215.5310669,10.7970514
			c0.1062775-2.8824439,0.1771393-5.7826033,0.1771393-8.7121181V1.279164H47.8724976v0.8057679
			c0,2.9295154,0.070858,5.8296757,0.1771469,8.7121201H2.2190304V22.64114
			c0,52.0145836,35.8177261,94.3326263,79.8434601,94.3326263l0.1569061-0.006073
			c14.4511948,17.9663162,31.5864258,27.4619217,49.5714645,27.4619217c18.0903168,0,35.3186798-9.605957,49.727356-27.4563599
			c44.0257416,0,79.8424377-42.3180313,79.8424377-94.3326187V10.7970514H215.5310669z M145.9069977,68.6904068
			l8.7247772,26.8510132L131.790863,78.9467392L108.9499664,95.54142l8.7237549-26.8510132L94.8328247,52.0952187h28.2332764
			l8.724762-26.8530445l8.7247772,26.8530445h28.2322693L145.9069977,68.6904068z M26.6927319,34.4832039h23.3855076
			C52.854393,54.7245941,58.309021,73.9506683,65.894989,90.2644501
			C45.4835396,82.5367737,30.255928,60.9313393,26.6927319,34.4832039z M197.6857147,90.2639465
			c7.585968-16.3097229,13.0395813-35.5378265,15.8167572-55.7812462h23.3855133
			C233.3247833,60.9313393,218.097168,82.5367737,197.6857147,90.2639465z"/>
	</g>
	<g>
		
			<linearGradient id="SVGID_00000006671773275546123490000017831611432124742558_" gradientUnits="userSpaceOnUse" x1="27.0423851" y1="-29.5293407" x2="286.184021" y2="-29.5293407" gradientTransform="matrix(1 0 0 1 -24.8233547 148.020752)">
			<stop  offset="0" style="stop-color:#E09D18"/>
			<stop  offset="0" style="stop-color:#F9C924"/>
			<stop  offset="0.319846" style="stop-color:#E4AF18"/>
			<stop  offset="0.680154" style="stop-color:#FFF98C"/>
			<stop  offset="1" style="stop-color:#FFD440"/>
		</linearGradient>
		<path style="fill:url(#SVGID_00000006671773275546123490000017831611432124742558_);" d="M157.5228271,148.6330719
			l-1.4430084,0.77034c-7.8081665,4.1594238-15.9868164,6.2679901-24.3087006,6.2679901
			c-8.2965775,0-16.4620743-2.108551-24.2702332-6.2679901l-1.4429932-0.77034l8.4322281,50.1813507h34.6014938
			L157.5228271,148.6330719z"/>
		
			<linearGradient id="SVGID_00000176739634487908801170000004864138956330695078_" gradientUnits="userSpaceOnUse" x1="27.0423851" y1="-29.5293407" x2="286.184021" y2="-29.5293407" gradientTransform="matrix(1 0 0 1 -24.8233547 148.020752)">
			<stop  offset="0" style="stop-color:#E09D18"/>
			<stop  offset="0" style="stop-color:#F9C924"/>
			<stop  offset="0.319846" style="stop-color:#E4AF18"/>
			<stop  offset="0.680154" style="stop-color:#FFF98C"/>
			<stop  offset="1" style="stop-color:#FFD440"/>
		</linearGradient>
		<polygon style="fill:url(#SVGID_00000176739634487908801170000004864138956330695078_);" points="101.3285522,208.8956451 
			91.2351913,235.7036438 172.3455048,235.7036438 162.2521515,208.8956451 		"/>
		
			<linearGradient id="SVGID_00000151506870347157248380000002826438991024690361_" gradientUnits="userSpaceOnUse" x1="27.0423851" y1="-29.5293407" x2="286.184021" y2="-29.5293407" gradientTransform="matrix(1 0 0 1 -24.8233547 148.020752)">
			<stop  offset="0" style="stop-color:#E09D18"/>
			<stop  offset="0" style="stop-color:#F9C924"/>
			<stop  offset="0.319846" style="stop-color:#E4AF18"/>
			<stop  offset="0.680154" style="stop-color:#FFF98C"/>
			<stop  offset="1" style="stop-color:#FFD440"/>
		</linearGradient>
		<path style="fill:url(#SVGID_00000151506870347157248380000002826438991024690361_);" d="M215.5310669,10.7970514
			c0.1062775-2.8824439,0.1771393-5.7826033,0.1771393-8.7121181V1.279164H47.8724976v0.8057679
			c0,2.9295154,0.070858,5.8296757,0.1771469,8.7121201H2.2190304V22.64114
			c0,52.0145836,35.8177261,94.3326263,79.8434601,94.3326263l0.1569061-0.006073
			c14.4511948,17.9663162,31.5864258,27.4619217,49.5714645,27.4619217c18.0903168,0,35.3186798-9.605957,49.727356-27.4563599
			c44.0257416,0,79.8424377-42.3180313,79.8424377-94.3326187V10.7970514H215.5310669z M145.9069977,68.6904068
			l8.7247772,26.8510132L131.790863,78.9467392L108.9499664,95.54142l8.7237549-26.8510132L94.8328247,52.0952187h28.2332764
			l8.724762-26.8530445l8.7247772,26.8530445h28.2322693L145.9069977,68.6904068z M26.6927319,34.4832039h23.3855076
			C52.854393,54.7245941,58.309021,73.9506683,65.894989,90.2644501
			C45.4835396,82.5367737,30.255928,60.9313393,26.6927319,34.4832039z M197.6857147,90.2639465
			c7.585968-16.3097229,13.0395813-35.5378265,15.8167572-55.7812462h23.3855133
			C233.3247833,60.9313393,218.097168,82.5367737,197.6857147,90.2639465z"/>
	</g>
	<g>
		<path class="st6" d="M157.5228271,148.6330719l-1.4430084,0.77034
			c-7.8081665,4.1594238-15.9868164,6.2679901-24.3087006,6.2679901c-8.2965775,0-16.4620743-2.108551-24.2702332-6.2679901
			l-1.4429932-0.77034l8.4322281,50.1813507h34.6014938L157.5228271,148.6330719z"/>
		<polygon class="st6" points="101.3285522,208.8956451 91.2351913,235.7036438 172.3455048,235.7036438 162.2521515,208.8956451 		
			"/>
		<path class="st6" d="M215.5310669,10.7970514c0.1062775-2.8824439,0.1771393-5.7826033,0.1771393-8.7121181V1.279164H47.8724976
			v0.8057679c0,2.9295154,0.070858,5.8296757,0.1771469,8.7121201H2.2190304V22.64114
			c0,52.0145836,35.8177261,94.3326263,79.8434601,94.3326263l0.1569061-0.006073
			c14.4511948,17.9663162,31.5864258,27.4619217,49.5714645,27.4619217c18.0903168,0,35.3186798-9.605957,49.727356-27.4563599
			c44.0257416,0,79.8424377-42.3180313,79.8424377-94.3326187V10.7970514H215.5310669z M145.9069977,68.6904068
			l8.7247772,26.8510132L131.790863,78.9467392L108.9499664,95.54142l8.7237549-26.8510132L94.8328247,52.0952187h28.2332764
			l8.724762-26.8530445l8.7247772,26.8530445h28.2322693L145.9069977,68.6904068z M26.6927319,34.4832039h23.3855076
			C52.854393,54.7245941,58.309021,73.9506683,65.894989,90.2644501
			C45.4835396,82.5367737,30.255928,60.9313393,26.6927319,34.4832039z M197.6857147,90.2639465
			c7.585968-16.3097229,13.0395813-35.5378265,15.8167572-55.7812462h23.3855133
			C233.3247833,60.9313393,218.097168,82.5367737,197.6857147,90.2639465z"/>
	</g>
</g>
<linearGradient id="SVGID_00000024710666533740760550000013588363191850701211_" gradientUnits="userSpaceOnUse" x1="92.9273453" y1="52.5465927" x2="169.8844299" y2="52.5465927">
	<stop  offset="0.1473111" style="stop-color:#E4AF18"/>
	<stop  offset="0.8318099" style="stop-color:#FFF98C"/>
</linearGradient>
<rect x="92.9273453" y="44.7444725" style="fill:url(#SVGID_00000024710666533740760550000013588363191850701211_);" width="76.957077" height="15.6042366"/>
<g>
	<path d="M168.8112793,54.1130219c-4.8367004,3.6986885-37.6586151,11.8764648-27.9609375-13.4631386
		c0.6820068-2.2994995,1.0812683-5.7668457,0.9818726-8.2905693c-0.4956055-12.5825176-11.2579498-22.3748856-24.03685-21.8715439
		c-9.7729416,0.384943-17.8894653,6.6838989-20.9472656,15.2511787c-6.5838242,1.5860214-8.2154236-1.023119-9.6560898-4.0498772
		c-1.5556259-3.2661495-5.1572037-2.1732903-5.6203766,2.124155c-0.3258133,3.0180092,2.5200043,11.0466404,9.0783539,13.3486042
		c-1.7943497,0.9417953-3.2882462,2.2035255-4.6001968,3.8262024c-1.7617722,2.1834373,0.738205,5.6458168,3.3212204,4.6438026
		c2.4375381-0.9453583,6.2480087-1.4124489,8.7653122-1.580986c1.2284546,2.4994621,2.7267075,4.6345634,4.132309,6.3614731
		c1.5014191,1.8453865-0.5147781,3.3080521-4.6217651,10.6408882c-5.6253357,10.0462303-6.0642395,23.0571785,1.8481064,32.1561928
		c9.4659576,10.8877182,27.503891,10.3266907,47.4373093,9.5415421
		c27.5558319-1.0853882,33.5627441-29.7131577,35.0028687-41.3109169
		C183.782135,46.5674324,178.4036255,46.7792816,168.8112793,54.1130219z M111.656723,33.3237877
		c-2.0962143,0.0825691-3.8625183-1.5500546-3.9451599-3.6480141c-0.0825653-2.0962124,1.5499802-3.86446,3.6460037-3.9470196
		c2.0979614-0.0826359,3.8645248,1.5517254,3.9470978,3.6479378
		C115.3872986,31.4746494,113.7546768,33.2411537,111.656723,33.3237877z"/>
</g>
</svg>
