<?xml version="1.0" encoding="utf-8"?>
<!-- Generator: Adobe Illustrator 28.2.0, SVG Export Plug-In . SVG Version: 6.00 Build 0)  -->
<!DOCTYPE svg PUBLIC "-//W3C//DTD SVG 1.1//EN" "http://www.w3.org/Graphics/SVG/1.1/DTD/svg11.dtd" [
	<!ENTITY ns_extend "http://ns.adobe.com/Extensibility/1.0/">
	<!ENTITY ns_ai "http://ns.adobe.com/AdobeIllustrator/10.0/">
	<!ENTITY ns_graphs "http://ns.adobe.com/Graphs/1.0/">
	<!ENTITY ns_vars "http://ns.adobe.com/Variables/1.0/">
	<!ENTITY ns_imrep "http://ns.adobe.com/ImageReplacement/1.0/">
	<!ENTITY ns_sfw "http://ns.adobe.com/SaveForWeb/1.0/">
	<!ENTITY ns_custom "http://ns.adobe.com/GenericCustomNamespace/1.0/">
	<!ENTITY ns_adobe_xpath "http://ns.adobe.com/XPath/1.0/">
]>
<svg version="1.1" id="_x32_" xmlns:x="&ns_extend;" xmlns:i="&ns_ai;" xmlns:graph="&ns_graphs;"
	 xmlns="http://www.w3.org/2000/svg" xmlns:xlink="http://www.w3.org/1999/xlink" x="0px" y="0px" width="25px" height="22px"
	 viewBox="0 0 25 22" style="enable-background:new 0 0 25 22;" xml:space="preserve">
<style type="text/css">
	.st0{fill:url(#SVGID_1_);}
	.st1{fill:url(#SVGID_00000064313876590563945990000013068217380137449629_);}
	.st2{fill:url(#SVGID_00000103985056239195435900000009362447159204406667_);}
	.st3{fill:url(#SVGID_00000031894099140493087380000000191586137639300524_);}
	.st4{fill:url(#SVGID_00000037654940347000275630000015904279574027956634_);}
	.st5{fill:url(#SVGID_00000156566298544503479470000011591035801465933699_);}
	.st6{fill:none;}
	.st7{fill:url(#SVGID_00000048463626390642427600000009270542469052155037_);}
</style>
<metadata>
	<sfw  xmlns="&ns_sfw;">
		<slices></slices>
		<sliceSourceBounds  bottomLeftOrigin="true" height="22" width="25" x="0.1" y="0.1"></sliceSourceBounds>
	</sfw>
</metadata>
<g>
	<g>
		
			<linearGradient id="SVGID_1_" gradientUnits="userSpaceOnUse" x1="10.0131" y1="193.3817" x2="14.9781" y2="193.3817" gradientTransform="matrix(1 0 0 1 0 -177.2317)">
			<stop  offset="0" style="stop-color:#FFFFFF"/>
			<stop  offset="1" style="stop-color:#000000"/>
		</linearGradient>
		<path class="st0" d="M15,13.8l-0.2,0.1c-0.8,0.4-1.5,0.6-2.3,0.6s-1.6-0.2-2.3-0.6l-0.1-0.1l0.8,4.7h3.3L15,13.8z"/>
		
			<linearGradient id="SVGID_00000107555894350636392220000013796535459107484072_" gradientUnits="userSpaceOnUse" x1="8.5831" y1="197.9817" x2="16.408" y2="197.9817" gradientTransform="matrix(1 0 0 1 0 -177.2317)">
			<stop  offset="0" style="stop-color:#FFFFFF"/>
			<stop  offset="1" style="stop-color:#000000"/>
		</linearGradient>
		<polygon style="fill:url(#SVGID_00000107555894350636392220000013796535459107484072_);" points="9.6,19.5 8.6,22 16.4,22 
			15.4,19.5 		"/>
		
			<linearGradient id="SVGID_00000042737560208497536340000007665479921587141258_" gradientUnits="userSpaceOnUse" x1="-3.799796e-07" y1="183.9817" x2="25" y2="183.9817" gradientTransform="matrix(1 0 0 1 0 -177.2317)">
			<stop  offset="0" style="stop-color:#FFFFFF"/>
			<stop  offset="1" style="stop-color:#000000"/>
		</linearGradient>
		<path style="fill:url(#SVGID_00000042737560208497536340000007665479921587141258_);" d="M20.6,0.9c0-0.3,0-0.5,0-0.8V0H4.4v0.1
			c0,0.3,0,0.5,0,0.8H0V2c0,4.9,3.5,8.9,7.7,8.9l0,0c1.4,1.7,3,2.6,4.8,2.6c1.7,0,3.4-0.9,4.8-2.6c4.2,0,7.7-4,7.7-8.9V0.9H20.6z
			 M13.9,6.3l0.8,2.5l-2.2-1.6l-2.2,1.6l0.8-2.5L8.9,4.8h2.7l0.8-2.5l0.8,2.5h2.7L13.9,6.3z M2.4,3.1h2.3C4.9,5,5.4,6.8,6.1,8.3
			C4.2,7.6,2.7,5.6,2.4,3.1z M18.9,8.3c0.7-1.5,1.3-3.3,1.5-5.2h2.3C22.3,5.6,20.8,7.6,18.9,8.3z"/>
	</g>
	<g>
		
			<linearGradient id="SVGID_00000163057620685631966350000016930468436174959281_" gradientUnits="userSpaceOnUse" x1="24.8189" y1="45.3609" x2="49.8189" y2="45.3609" gradientTransform="matrix(1 0 0 1 -24.8234 -29.2109)">
			<stop  offset="0" style="stop-color:#E09D18"/>
			<stop  offset="0" style="stop-color:#F9C924"/>
			<stop  offset="0.3198" style="stop-color:#E4AF18"/>
			<stop  offset="0.6802" style="stop-color:#FFF98C"/>
			<stop  offset="1" style="stop-color:#FFD440"/>
		</linearGradient>
		<path style="fill:url(#SVGID_00000163057620685631966350000016930468436174959281_);" d="M15,13.8l-0.2,0.1
			c-0.8,0.4-1.5,0.6-2.3,0.6s-1.6-0.2-2.3-0.6l-0.1-0.1l0.8,4.7h3.3L15,13.8z"/>
		
			<linearGradient id="SVGID_00000090985529597832388450000016933125833417678241_" gradientUnits="userSpaceOnUse" x1="24.8189" y1="49.9609" x2="49.8189" y2="49.9609" gradientTransform="matrix(1 0 0 1 -24.8234 -29.2109)">
			<stop  offset="0" style="stop-color:#E09D18"/>
			<stop  offset="0" style="stop-color:#F9C924"/>
			<stop  offset="0.3198" style="stop-color:#E4AF18"/>
			<stop  offset="0.6802" style="stop-color:#FFF98C"/>
			<stop  offset="1" style="stop-color:#FFD440"/>
		</linearGradient>
		<polygon style="fill:url(#SVGID_00000090985529597832388450000016933125833417678241_);" points="9.6,19.5 8.6,22 16.4,22 
			15.4,19.5 		"/>
		
			<linearGradient id="SVGID_00000045593185235495150180000017911408200644582038_" gradientUnits="userSpaceOnUse" x1="24.8234" y1="35.9609" x2="49.8234" y2="35.9609" gradientTransform="matrix(1 0 0 1 -24.8234 -29.2109)">
			<stop  offset="0" style="stop-color:#E09D18"/>
			<stop  offset="0" style="stop-color:#F9C924"/>
			<stop  offset="0.3198" style="stop-color:#E4AF18"/>
			<stop  offset="0.6802" style="stop-color:#FFF98C"/>
			<stop  offset="1" style="stop-color:#FFD440"/>
		</linearGradient>
		<path style="fill:url(#SVGID_00000045593185235495150180000017911408200644582038_);" d="M20.6,0.9c0-0.3,0-0.5,0-0.8V0H4.4v0.1
			c0,0.3,0,0.5,0,0.8H0V2c0,4.9,3.5,8.9,7.7,8.9l0,0c1.4,1.7,3,2.6,4.8,2.6c1.7,0,3.4-0.9,4.8-2.6c4.2,0,7.7-4,7.7-8.9V0.9H20.6z
			 M13.9,6.3l0.8,2.5l-2.2-1.6l-2.2,1.6l0.8-2.5L8.9,4.8h2.7l0.8-2.5l0.8,2.5h2.7L13.9,6.3z M2.4,3.1h2.3C4.9,5,5.4,6.8,6.1,8.3
			C4.2,7.6,2.7,5.6,2.4,3.1z M18.9,8.3c0.7-1.5,1.3-3.3,1.5-5.2h2.3C22.3,5.6,20.8,7.6,18.9,8.3z"/>
	</g>
	<g>
		<path class="st6" d="M15,13.8l-0.2,0.1c-0.8,0.4-1.5,0.6-2.3,0.6s-1.6-0.2-2.3-0.6l-0.1-0.1l0.8,4.7h3.3L15,13.8z"/>
		<polygon class="st6" points="9.6,19.5 8.6,22 16.4,22 15.4,19.5 		"/>
		<path class="st6" d="M20.6,0.9c0-0.3,0-0.5,0-0.8V0H4.4v0.1c0,0.3,0,0.5,0,0.8H0V2c0,4.9,3.5,8.9,7.7,8.9l0,0
			c1.4,1.7,3,2.6,4.8,2.6c1.7,0,3.4-0.9,4.8-2.6c4.2,0,7.7-4,7.7-8.9V0.9H20.6z M13.9,6.3l0.8,2.5l-2.2-1.6l-2.2,1.6l0.8-2.5
			L8.9,4.8h2.7l0.8-2.5l0.8,2.5h2.7L13.9,6.3z M2.4,3.1h2.3C4.9,5,5.4,6.8,6.1,8.3C4.2,7.6,2.7,5.6,2.4,3.1z M18.9,8.3
			c0.7-1.5,1.3-3.3,1.5-5.2h2.3C22.3,5.6,20.8,7.6,18.9,8.3z"/>
	</g>
</g>
<linearGradient id="SVGID_00000066475842270546701740000009374616448354109348_" gradientUnits="userSpaceOnUse" x1="8.5" y1="181.8817" x2="16.549" y2="181.8817" gradientTransform="matrix(1 0 0 1 0 -177.2317)">
	<stop  offset="0.1473" style="stop-color:#E4AF18"/>
	<stop  offset="0.8318" style="stop-color:#FFF98C"/>
</linearGradient>
<rect x="8.5" y="3.9" style="fill:url(#SVGID_00000066475842270546701740000009374616448354109348_);" width="8" height="1.5"/>
<g>
	<path d="M16,4.8c-0.5,0.4-3.6,1.1-2.7-1.3c0.1-0.2,0.1-0.6,0.1-0.8c0-1.2-1.1-2.1-2.3-2.1c-0.9,0-1.7,0.6-2,1.5
		C8.5,2.2,8.4,2,8.2,1.7C8.1,1.4,7.7,1.5,7.7,1.9c0,0.3,0.2,1.1,0.9,1.3C8.4,3.3,8.2,3.4,8.1,3.6C7.9,3.8,8.2,4.1,8.4,4
		C8.7,3.9,9,3.9,9.3,3.9c0.1,0.2,0.3,0.4,0.4,0.6c0.1,0.2,0,0.3-0.4,1c-0.5,1-0.6,2.2,0.2,3.1c0.9,1,2.6,1,4.5,0.9
		c2.6-0.1,3.2-2.8,3.4-4C17.5,4.1,17,4.1,16,4.8z M10.6,2.8c-0.2,0-0.4-0.1-0.4-0.3s0.1-0.4,0.3-0.4s0.4,0.1,0.4,0.3
		S10.8,2.8,10.6,2.8z"/>
</g>
</svg>
