<svg width="307" height="136" viewBox="0 0 307 136" fill="none" xmlns="http://www.w3.org/2000/svg">
<path d="M0 15.8301C0 7.33406 6.8874 0.446655 15.3834 0.446655H291.617C300.113 0.446655 307 7.33406 307 15.8301V120.17C307 128.666 300.113 135.553 291.617 135.553H15.3834C6.88739 135.553 0 128.666 0 120.17V15.8301Z" fill="#4A7FDC"/>
<path d="M208.355 29.5066H234.2C246.71 29.5066 256.598 33.1023 263.864 40.2937C271.206 47.4102 274.876 56.2497 274.876 66.8121C274.876 77.3745 271.206 86.2514 263.864 93.4429C256.598 100.559 246.71 104.118 234.2 104.118H208.355V29.5066ZM223.075 90.9708H233.75C241.766 90.9708 248.171 88.7235 252.965 84.2288C257.759 79.7342 260.156 73.9286 260.156 66.8121C260.156 59.6956 257.759 53.89 252.965 49.3954C248.171 44.9007 241.766 42.6534 233.75 42.6534H223.075V90.9708Z" fill="white"/>
<path d="M98.7754 52.4293C98.7754 57.9727 97.2023 62.8044 94.0561 66.9245C90.9098 71.0446 86.3403 73.6664 80.3474 74.7901L102.708 104.118H84.3926L62.5936 75.4643H50.7951V104.118H36.0752V29.5066H72.9313C81.3962 29.5066 87.801 31.679 92.1458 36.0238C96.5656 40.3686 98.7754 45.8371 98.7754 52.4293ZM50.7951 42.6534V62.3175H71.92C75.6655 62.3175 78.6245 61.4185 80.7969 59.6207C82.9693 57.8228 84.0555 55.4257 84.0555 52.4293C84.0555 49.4328 82.9693 47.0732 80.7969 45.3502C78.6994 43.5523 75.7404 42.6534 71.92 42.6534H50.7951Z" fill="white"/>
<path d="M131.303 49.085L110.74 30.5447L129.954 30.5447L139.842 39.1968C146.734 32.4549 154.113 29.0839 161.978 29.0839C169.395 29.0839 175.163 31.069 179.283 35.0393C183.328 39.0096 185.351 43.7289 185.351 49.1974C185.351 53.1677 184.452 56.4638 182.654 59.0856C180.856 61.7824 178.084 64.5541 174.339 67.4007L172.091 69.0862L173.103 70.0975C179.021 75.566 181.98 81.0719 181.98 86.6153C181.98 92.758 179.845 97.6272 175.575 101.223C171.23 104.819 166.136 106.616 160.293 106.616C153.776 106.616 148.42 104.781 144.225 101.111C140.03 97.5148 137.932 92.758 137.932 86.84C137.932 80.3977 141.678 74.4423 149.169 68.9738L151.304 67.4007L140.404 57.6249L119.616 79.6486L119.616 61.67L131.303 49.085ZM160.068 94.1438C162.166 94.1438 164.076 93.5071 165.799 92.2336C167.522 90.9601 168.383 89.1997 168.383 86.9524C168.383 84.7051 166.623 81.8959 163.102 78.5249L160.518 76.1653L156.922 78.862C153.326 81.409 151.528 84.1432 151.528 87.0648C151.528 89.0124 152.39 90.6605 154.113 92.0089C155.761 93.4322 157.746 94.1438 160.068 94.1438ZM162.091 42.1184C157.821 42.1184 153.514 44.1409 149.169 48.1861L162.877 60.434L165.237 58.6362C169.582 55.415 171.754 52.3437 171.754 49.4221C171.754 47.3996 170.893 45.6766 169.17 44.2533C167.372 42.83 165.012 42.1184 162.091 42.1184Z" fill="white"/>
</svg>
