<?xml version="1.0" encoding="utf-8"?>
<!-- Generator: Adobe Illustrator 28.2.0, SVG Export Plug-In . SVG Version: 6.00 Build 0)  -->
<!DOCTYPE svg PUBLIC "-//W3C//DTD SVG 1.1//EN" "http://www.w3.org/Graphics/SVG/1.1/DTD/svg11.dtd" [
	<!ENTITY ns_extend "http://ns.adobe.com/Extensibility/1.0/">
	<!ENTITY ns_ai "http://ns.adobe.com/AdobeIllustrator/10.0/">
	<!ENTITY ns_graphs "http://ns.adobe.com/Graphs/1.0/">
	<!ENTITY ns_vars "http://ns.adobe.com/Variables/1.0/">
	<!ENTITY ns_imrep "http://ns.adobe.com/ImageReplacement/1.0/">
	<!ENTITY ns_sfw "http://ns.adobe.com/SaveForWeb/1.0/">
	<!ENTITY ns_custom "http://ns.adobe.com/GenericCustomNamespace/1.0/">
	<!ENTITY ns_adobe_xpath "http://ns.adobe.com/XPath/1.0/">
]>
<svg version="1.1" id="_x32_" xmlns:x="&ns_extend;" xmlns:i="&ns_ai;" xmlns:graph="&ns_graphs;"
	 xmlns="http://www.w3.org/2000/svg" xmlns:xlink="http://www.w3.org/1999/xlink" x="0px" y="0px" width="25px" height="22px"
	 viewBox="0 0 25 22" style="enable-background:new 0 0 25 22;" xml:space="preserve">
<style type="text/css">
	.st0{fill:url(#SVGID_1_);}
	.st1{fill:url(#SVGID_00000075151614365750250160000015784455328436907673_);}
	.st2{fill:url(#SVGID_00000011009825591872425410000012519015668363539859_);}
	.st3{fill:url(#SVGID_00000011716778761054020770000003907498695978022570_);}
	.st4{fill:url(#SVGID_00000094619813645779884900000014960141315656819087_);}
	.st5{fill:url(#SVGID_00000071533136744303795420000005683839840781983905_);}
	.st6{fill:url(#SVGID_00000145780548035622424270000011529195442492435075_);}
</style>
<metadata>
	<sfw  xmlns="&ns_sfw;">
		<slices></slices>
		<sliceSourceBounds  bottomLeftOrigin="true" height="22" width="25" x="119" y="107.7"></sliceSourceBounds>
	</sfw>
</metadata>
<g>
	<g>
		
			<linearGradient id="SVGID_1_" gradientUnits="userSpaceOnUse" x1="10.0202" y1="6.4336" x2="14.9852" y2="6.4336" gradientTransform="matrix(1 0 0 -1 0 22.6261)">
			<stop  offset="0" style="stop-color:#FFFFFF"/>
			<stop  offset="1" style="stop-color:#000000"/>
		</linearGradient>
		<path class="st0" d="M15,13.8l-0.1,0.1c-0.8,0.4-1.5,0.6-2.3,0.6c-0.8,0-1.6-0.2-2.3-0.6L10,13.8l0.8,4.7h3.3L15,13.8z"/>
		
			<linearGradient id="SVGID_00000107551391110000905870000012937989260321585063_" gradientUnits="userSpaceOnUse" x1="8.5903" y1="1.875" x2="16.4152" y2="1.875" gradientTransform="matrix(1 0 0 -1 0 22.6261)">
			<stop  offset="0" style="stop-color:#FFFFFF"/>
			<stop  offset="1" style="stop-color:#000000"/>
		</linearGradient>
		<polygon style="fill:url(#SVGID_00000107551391110000905870000012937989260321585063_);" points="9.6,19.5 8.6,22 16.4,22 
			15.4,19.5 		"/>
		
			<linearGradient id="SVGID_00000006705595791187461370000003820979991588034434_" gradientUnits="userSpaceOnUse" x1="2.670194e-03" y1="15.8999" x2="25.0027" y2="15.8999" gradientTransform="matrix(1 0 0 -1 0 22.6261)">
			<stop  offset="0" style="stop-color:#FFFFFF"/>
			<stop  offset="1" style="stop-color:#000000"/>
		</linearGradient>
		<path style="fill:url(#SVGID_00000006705595791187461370000003820979991588034434_);" d="M20.6,0.9c0-0.3,0-0.5,0-0.8V0H4.4v0.1
			c0,0.3,0,0.5,0,0.8H0V2c0,4.9,3.5,8.9,7.7,8.9l0,0c1.4,1.7,3,2.6,4.8,2.6c1.7,0,3.4-0.9,4.8-2.6c4.2,0,7.7-4,7.7-8.9V0.9H20.6z
			 M13.9,6.3l0.8,2.5l-2.2-1.6l-2.2,1.6l0.8-2.5L8.9,4.8h2.7l0.8-2.5l0.8,2.5h2.7L13.9,6.3z M2.4,3.1h2.3C4.9,5,5.4,6.8,6.1,8.4
			C4.2,7.6,2.7,5.6,2.4,3.1z M18.9,8.4c0.7-1.5,1.3-3.3,1.5-5.2h2.3C22.3,5.6,20.8,7.6,18.9,8.4z"/>
	</g>
	<g>
		
			<linearGradient id="SVGID_00000179624608498014814700000017539930895941440444_" gradientUnits="userSpaceOnUse" x1="2.670194e-03" y1="6.4336" x2="25.0027" y2="6.4336" gradientTransform="matrix(1 0 0 -1 0 22.6261)">
			<stop  offset="0" style="stop-color:#7D7D7D"/>
			<stop  offset="3.025590e-02" style="stop-color:#868686"/>
			<stop  offset="0.195" style="stop-color:#B4B4B4"/>
			<stop  offset="0.3219" style="stop-color:#D0D0D0"/>
			<stop  offset="0.3951" style="stop-color:#DBDBDB"/>
			<stop  offset="0.5199" style="stop-color:#CCCCCC"/>
			<stop  offset="1" style="stop-color:#979797"/>
		</linearGradient>
		<path style="fill:url(#SVGID_00000179624608498014814700000017539930895941440444_);" d="M15,13.8l-0.1,0.1
			c-0.8,0.4-1.5,0.6-2.3,0.6c-0.8,0-1.6-0.2-2.3-0.6L10,13.8l0.8,4.7h3.3L15,13.8z"/>
		
			<linearGradient id="SVGID_00000058587146838861626910000004616605450075633566_" gradientUnits="userSpaceOnUse" x1="2.670194e-03" y1="1.875" x2="25.0027" y2="1.875" gradientTransform="matrix(1 0 0 -1 0 22.6261)">
			<stop  offset="0" style="stop-color:#7D7D7D"/>
			<stop  offset="3.025590e-02" style="stop-color:#868686"/>
			<stop  offset="0.195" style="stop-color:#B4B4B4"/>
			<stop  offset="0.3219" style="stop-color:#D0D0D0"/>
			<stop  offset="0.3951" style="stop-color:#DBDBDB"/>
			<stop  offset="0.5199" style="stop-color:#CCCCCC"/>
			<stop  offset="1" style="stop-color:#979797"/>
		</linearGradient>
		<polygon style="fill:url(#SVGID_00000058587146838861626910000004616605450075633566_);" points="9.6,19.5 8.6,22 16.4,22 
			15.4,19.5 		"/>
		
			<linearGradient id="SVGID_00000113347241099050524000000007690678979628801975_" gradientUnits="userSpaceOnUse" x1="2.670194e-03" y1="15.8999" x2="25.0027" y2="15.8999" gradientTransform="matrix(1 0 0 -1 0 22.6261)">
			<stop  offset="0" style="stop-color:#7D7D7D"/>
			<stop  offset="3.025590e-02" style="stop-color:#868686"/>
			<stop  offset="0.195" style="stop-color:#B4B4B4"/>
			<stop  offset="0.3219" style="stop-color:#D0D0D0"/>
			<stop  offset="0.3951" style="stop-color:#DBDBDB"/>
			<stop  offset="0.5199" style="stop-color:#CCCCCC"/>
			<stop  offset="1" style="stop-color:#979797"/>
		</linearGradient>
		<path style="fill:url(#SVGID_00000113347241099050524000000007690678979628801975_);" d="M20.6,0.9c0-0.3,0-0.5,0-0.8V0H4.4v0.1
			c0,0.3,0,0.5,0,0.8H0V2c0,4.9,3.5,8.9,7.7,8.9l0,0c1.4,1.7,3,2.6,4.8,2.6c1.7,0,3.4-0.9,4.8-2.6c4.2,0,7.7-4,7.7-8.9V0.9H20.6z
			 M13.9,6.3l0.8,2.5l-2.2-1.6l-2.2,1.6l0.8-2.5L8.9,4.8h2.7l0.8-2.5l0.8,2.5h2.7L13.9,6.3z M2.4,3.1h2.3C4.9,5,5.4,6.8,6.1,8.4
			C4.2,7.6,2.7,5.6,2.4,3.1z M18.9,8.4c0.7-1.5,1.3-3.3,1.5-5.2h2.3C22.3,5.6,20.8,7.6,18.9,8.4z"/>
	</g>
</g>
<linearGradient id="SVGID_00000025421193468579784370000010691310274309771922_" gradientUnits="userSpaceOnUse" x1="8.7535" y1="17.4608" x2="16.0681" y2="17.4608" gradientTransform="matrix(1 0 0 -1 0 22.6261)">
	<stop  offset="0.6611" style="stop-color:#DBDBDB"/>
	<stop  offset="0.8258" style="stop-color:#D9D9D9"/>
	<stop  offset="0.8851" style="stop-color:#D2D2D2"/>
	<stop  offset="0.9274" style="stop-color:#C7C7C7"/>
	<stop  offset="0.9616" style="stop-color:#B6B6B6"/>
	<stop  offset="0.9905" style="stop-color:#A0A0A0"/>
	<stop  offset="1" style="stop-color:#979797"/>
</linearGradient>
<rect x="8.8" y="4.8" style="fill:url(#SVGID_00000025421193468579784370000010691310274309771922_);" width="7.3" height="0.8"/>
<g>
	<path d="M16.1,5c-0.5,0.3-3.6,1.1-2.7-1.3c0.1-0.2,0.1-0.5,0.1-0.8c0-1.2-1.1-2.1-2.3-2.1c-0.9,0-1.7,0.6-2,1.4
		C8.5,2.5,8.3,2.2,8.2,1.9C8.1,1.6,7.7,1.7,7.7,2.1c0,0.3,0.2,1,0.9,1.3C8.4,3.5,8.2,3.6,8.1,3.7C7.9,3.9,8.2,4.3,8.4,4.2
		C8.6,4.1,9,4,9.3,4c0.1,0.2,0.3,0.4,0.4,0.6c0.1,0.2,0,0.3-0.4,1c-0.5,0.9-0.6,2.2,0.2,3c0.9,1,2.7,1,4.6,0.9
		c2.7-0.1,3.2-2.8,3.4-3.9C17.5,4.3,17,4.3,16.1,5z M10.6,3c-0.2,0-0.4-0.1-0.4-0.3c0-0.2,0.1-0.4,0.4-0.4c0.2,0,0.4,0.1,0.4,0.3
		C10.9,2.8,10.8,3,10.6,3z"/>
</g>
</svg>
