<?xml version="1.0" encoding="utf-8"?>
<!-- Generator: Adobe Illustrator 28.2.0, SVG Export Plug-In . SVG Version: 6.00 Build 0)  -->
<!DOCTYPE svg PUBLIC "-//W3C//DTD SVG 1.1//EN" "http://www.w3.org/Graphics/SVG/1.1/DTD/svg11.dtd" [
	<!ENTITY ns_extend "http://ns.adobe.com/Extensibility/1.0/">
	<!ENTITY ns_ai "http://ns.adobe.com/AdobeIllustrator/10.0/">
	<!ENTITY ns_graphs "http://ns.adobe.com/Graphs/1.0/">
	<!ENTITY ns_vars "http://ns.adobe.com/Variables/1.0/">
	<!ENTITY ns_imrep "http://ns.adobe.com/ImageReplacement/1.0/">
	<!ENTITY ns_sfw "http://ns.adobe.com/SaveForWeb/1.0/">
	<!ENTITY ns_custom "http://ns.adobe.com/GenericCustomNamespace/1.0/">
	<!ENTITY ns_adobe_xpath "http://ns.adobe.com/XPath/1.0/">
]>
<svg version="1.1" id="Слой_1" xmlns:x="&ns_extend;" xmlns:i="&ns_ai;" xmlns:graph="&ns_graphs;"
	 xmlns="http://www.w3.org/2000/svg" xmlns:xlink="http://www.w3.org/1999/xlink" x="0px" y="0px" width="258.5390625px"
	 height="61.171875px" viewBox="0 0 258.5390625 61.171875" style="enable-background:new 0 0 258.5390625 61.171875;"
	 xml:space="preserve">
<style type="text/css">
	.st0{enable-background:new    ;}
	.st1{fill:#78539E;}
</style>
<metadata>
	<sfw  xmlns="&ns_sfw;">
		<slices></slices>
		<sliceSourceBounds  bottomLeftOrigin="true" height="61.171875" width="258.5390625" x="0" y="0"></sliceSourceBounds>
	</sfw>
</metadata>
<g class="st0">
	<path class="st1" d="M44.296875,42.1875c0,12.65625-6.328125,18.984375-18.984375,18.984375h-6.328125
		C6.328125,61.171875,0,54.84375,0,42.1875V0h8.4375v42.1875c0,7.03125,3.515625,10.546875,10.546875,10.546875H25.3125
		c7.03125,0,10.546875-3.515625,10.546875-10.546875V0h8.4375V42.1875z M33.75,42.1875c0,5.625-2.8125,8.4375-8.4375,8.4375
		h-6.328125c-5.625,0-8.4375-2.8125-8.4375-8.4375V0h8.4375v40.078125c0,1.40625,0.703125,2.109375,2.109375,2.109375h2.109375
		c1.40625,0,2.109375-0.703125,2.109375-2.109375V0H33.75V42.1875z"/>
	<path class="st1" d="M97.03125,20.0390625c0,5.53125-1.4179688,9.7148438-4.2539062,12.5507812
		c-2.8369141,2.8369141-5.2382812,4.7460938-7.2070312,5.7304688L97.03125,61.171875h-8.4375l-14.765625-29.53125h4.21875
		c2.484375,0,4.8623047-1.1357422,7.1367188-3.4101562c2.2734375-2.2734375,3.4101562-5.0029297,3.4101562-8.1914062
		c0-3.1396484-1.1367188-5.859375-3.4101562-8.15625C82.9091797,9.5869141,80.53125,8.4375,78.046875,8.4375h-29.53125V0h29.53125
		c4.8271484,0,9.1992188,1.96875,13.1132812,5.90625C95.0732422,9.84375,97.03125,14.5546875,97.03125,20.0390625z
		 M86.484375,20.0390625c0,2.6259766-0.9257812,4.8632812-2.7773438,6.7148438
		C81.8544922,28.6064453,79.96875,29.53125,78.046875,29.53125h-21.09375v31.640625h-8.4375V21.09375H75.9375
		c1.40625,0,2.109375-0.3515625,2.109375-1.0546875S77.34375,18.984375,75.9375,18.984375H48.515625v-8.4375h29.53125
		c1.921875,0,3.8076172,0.9384766,5.6601562,2.8125C85.5585938,15.234375,86.484375,17.4619141,86.484375,20.0390625z
		 M86.484375,61.171875h-8.4375L67.5,40.078125v21.09375h-8.4375v-29.53125h12.65625L86.484375,61.171875z"/>
	<path class="st1" d="M101.25,51.328125h9.84375v9.84375H101.25V51.328125z"/>
	<path class="st1" d="M115.1015625,20.0390625c0-5.484375,1.9570312-10.1953125,5.8710938-14.1328125
		C124.8857422,1.96875,129.2578125,0,134.0859375,0h27.421875v8.4375h-25.3125
		c-3.8916016,0-6.9726562,1.1494141-9.2460938,3.4453125c-2.2744141,2.296875-3.4101562,5.0166016-3.4101562,8.15625
		c0,3.1884766,1.1357422,5.9179688,3.4101562,8.1914062c2.2734375,2.2744141,5.3544922,3.4101562,9.2460938,3.4101562h4.21875
		c3.328125,0,5.9169922,0.9257812,7.7695312,2.7773438c1.8515625,1.8525391,2.7773438,4.0898438,2.7773438,6.7148438
		c0,2.578125-0.9257812,4.8056641-2.7773438,6.6796875c-1.8525391,1.875-4.4414062,2.8125-7.7695312,2.8125h-25.3125v-8.4375
		h25.3125c1.40625,0,2.109375-0.3515625,2.109375-1.0546875s-0.703125-1.0546875-2.109375-1.0546875h-6.328125
		c-4.828125,0-9.2001953-1.9570312-13.1132812-5.8710938C117.0585938,30.2939453,115.1015625,25.5703125,115.1015625,20.0390625z
		 M125.6484375,20.0390625c0-2.5771484,0.9248047-4.8046875,2.7773438-6.6796875
		c1.8515625-1.8740234,4.4404297-2.8125,7.7695312-2.8125h25.3125v8.4375h-25.3125
		c-1.40625,0-2.109375,0.3515625-2.109375,1.0546875s0.703125,1.0546875,2.109375,1.0546875h6.328125
		c4.8271484,0,9.1992188,1.9580078,13.1132812,5.8710938c3.9130859,3.9140625,5.8710938,8.6376953,5.8710938,14.1679688
		c0,5.484375-1.9580078,10.1953125-5.8710938,14.1328125c-3.9140625,3.9375-8.2861328,5.90625-13.1132812,5.90625h-27.421875
		v-8.4375h25.3125c3.890625,0,6.9716797-1.1484375,9.2460938-3.4453125c2.2734375-2.2958984,3.4101562-5.015625,3.4101562-8.15625
		c0-3.1875-1.1367188-5.9169922-3.4101562-8.1914062c-2.2744141-2.2734375-5.3554688-3.4101562-9.2460938-3.4101562h-4.21875
		c-3.3291016,0-5.9179688-0.9248047-7.7695312-2.7773438C126.5732422,24.9023438,125.6484375,22.6650391,125.6484375,20.0390625z"/>
	<path class="st1" d="M165.7265625,18.984375C165.7265625,6.328125,172.0546875,0,184.7109375,0h25.3125v8.4375h-25.3125
		c-7.03125,0-10.546875,3.515625-10.546875,10.546875V42.1875c0,7.03125,3.515625,10.546875,10.546875,10.546875h25.3125v8.4375
		h-25.3125c-12.65625,0-18.984375-6.328125-18.984375-18.984375V18.984375z M176.2734375,29.53125V18.984375
		c0-5.625,2.8125-8.4375,8.4375-8.4375h25.3125v8.4375h-23.203125c-1.40625,0-2.109375,0.703125-2.109375,2.109375h18.984375v8.4375
		H176.2734375z M176.2734375,31.640625h27.421875v8.4375h-18.984375c0,1.40625,0.703125,2.109375,2.109375,2.109375h23.203125
		v8.4375h-25.3125c-5.625,0-8.4375-2.8125-8.4375-8.4375V31.640625z"/>
	<path class="st1" d="M214.2421875,18.984375C214.2421875,6.328125,220.5703125,0,233.2265625,0h25.3125v8.4375h-25.3125
		c-7.03125,0-10.546875,3.515625-10.546875,10.546875V42.1875c0,7.03125,3.515625,10.546875,10.546875,10.546875h25.3125v8.4375
		h-25.3125c-12.65625,0-18.984375-6.328125-18.984375-18.984375V18.984375z M224.7890625,18.984375
		c0-5.625,2.8125-8.4375,8.4375-8.4375h25.3125v8.4375h-23.203125c-1.40625,0-2.109375,0.703125-2.109375,2.109375v18.984375
		c0,1.40625,0.703125,2.109375,2.109375,2.109375h23.203125v8.4375h-25.3125c-5.625,0-8.4375-2.8125-8.4375-8.4375V18.984375z"/>
</g>
</svg>
